<?xml version="1.0" encoding="utf-8"?>
<!-- Generator: Adobe Illustrator 26.3.1, SVG Export Plug-In . SVG Version: 6.00 Build 0)  -->
<svg version="1.1" id="DOLE" xmlns="http://www.w3.org/2000/svg" xmlns:xlink="http://www.w3.org/1999/xlink" x="0px" y="0px"
	 viewBox="0 0 1814.17 1814.17" style="enable-background:new 0 0 1814.17 1814.17;" xml:space="preserve">
<style type="text/css">
	.st0{fill:#C8D400;}
	.st1{fill:#0BBBEF;}
	.st2{fill:#BED137;}
	.st3{fill:#231F20;}
</style>
<rect y="0" class="st0" width="1814.17" height="1814.17"/>
<g>
	<path class="st1" d="M1146.71,365.85c-59.85-58.87-143.19-78.08-234.52-78.08c-91.33,0-163.72,29.97-223.57,88.84
		c-59.85,58.87-110.35,130.08-110.35,219.91c0,89.83,36.06,175.25,95.91,234.12c59.85,58.87,146.69,104.95,238.02,104.95
		c91.33,0,178.51-45.75,238.36-104.62c59.86-58.88,75.55-144.62,75.55-234.45C1226.09,506.68,1206.56,424.71,1146.71,365.85z"/>
	<path class="st2" d="M1004.88,508.43c-25.14-24.73-60.14-32.79-98.5-32.79c-38.36,0-68.76,12.59-93.9,37.31
		c-25.14,24.72-46.35,54.63-46.35,92.36c0,37.73,15.14,73.61,40.28,98.33c25.14,24.73,61.61,44.08,99.97,44.08
		c38.36,0,74.97-19.22,100.11-43.94c25.14-24.73,31.73-60.74,31.73-98.47C1038.22,567.58,1030.02,533.16,1004.88,508.43z"/>
	<path class="st3" d="M592.25,1099.83h6.78c1.02,0,1.91-0.04,2.66-0.12c0.75-0.08,1.44-0.23,2.06-0.44
		c0.62-0.22,1.18-0.53,1.69-0.93c0.51-0.4,1.06-0.9,1.65-1.49l46.05-47.34c0.8-0.91,1.6-1.53,2.38-1.85
		c0.78-0.32,1.71-0.48,2.78-0.48h6.61l-49.84,51.21c-1.02,1.07-1.92,1.9-2.7,2.5c-0.78,0.59-1.65,1.08-2.62,1.45
		c1.13,0.32,2.15,0.82,3.06,1.49c0.91,0.67,1.83,1.54,2.74,2.62l52.49,54.84h-6.69c-1.4,0-2.41-0.17-3.02-0.53
		c-0.62-0.35-1.23-0.9-1.82-1.65l-48.22-49.35c-0.6-0.59-1.14-1.1-1.66-1.53c-0.51-0.43-1.08-0.79-1.69-1.09
		c-0.62-0.3-1.34-0.51-2.18-0.64c-0.83-0.13-1.89-0.2-3.18-0.2h-7.34v55h-8.3v-114.11h8.3V1099.83z"/>
	<path class="st3" d="M778.7,1104.19c0,8.82-1.32,16.82-3.95,23.99c-2.64,7.18-6.35,13.3-11.13,18.39
		c-4.78,5.08-10.52,9-17.22,11.77c-6.69,2.77-14.07,4.15-22.13,4.15c-8.07,0-15.43-1.38-22.1-4.15
		c-6.66-2.77-12.39-6.69-17.18-11.77c-4.78-5.08-8.5-11.21-11.13-18.39c-2.63-7.18-3.95-15.17-3.95-23.99
		c0-8.76,1.32-16.73,3.95-23.91c2.63-7.18,6.34-13.31,11.13-18.39c4.78-5.08,10.51-9.02,17.18-11.81c6.66-2.79,14.03-4.19,22.1-4.19
		c8.06,0,15.44,1.38,22.13,4.15c6.69,2.77,12.43,6.71,17.22,11.81c4.78,5.11,8.49,11.25,11.13,18.43
		C777.38,1087.46,778.7,1095.43,778.7,1104.19z M770.15,1104.19c0-7.95-1.1-15.1-3.31-21.45c-2.2-6.34-5.32-11.72-9.36-16.13
		c-4.03-4.41-8.87-7.78-14.51-10.12c-5.64-2.34-11.88-3.51-18.71-3.51c-6.78,0-12.98,1.17-18.63,3.51
		c-5.64,2.34-10.5,5.71-14.56,10.12c-4.06,4.41-7.21,9.78-9.44,16.13c-2.23,6.34-3.35,13.5-3.35,21.45c0,8.01,1.12,15.18,3.35,21.49
		c2.23,6.32,5.38,11.68,9.44,16.09c4.06,4.41,8.91,7.77,14.56,10.08c5.64,2.31,11.85,3.46,18.63,3.46c6.83,0,13.06-1.15,18.71-3.46
		c5.64-2.31,10.48-5.67,14.51-10.08c4.04-4.41,7.15-9.77,9.36-16.09C769.05,1119.37,770.15,1112.2,770.15,1104.19z"/>
	<path class="st3" d="M808.28,1047.46c0.4,0.19,0.84,0.6,1.33,1.25l73.95,98.87c-0.17-1.61-0.24-3.17-0.24-4.68v-95.72h7.17v114.11
		h-3.87c-0.7,0-1.28-0.12-1.74-0.36c-0.46-0.24-0.9-0.65-1.33-1.25l-74.11-98.95c0.16,1.61,0.24,3.12,0.24,4.52v96.04h-7.25v-114.11
		h4.11C807.3,1047.18,807.88,1047.27,808.28,1047.46z"/>
	<path class="st3" d="M1023.31,1104.19c0,8.82-1.32,16.82-3.95,23.99c-2.64,7.18-6.35,13.3-11.13,18.39
		c-4.78,5.08-10.52,9-17.22,11.77c-6.69,2.77-14.07,4.15-22.13,4.15c-8.07,0-15.44-1.38-22.1-4.15
		c-6.66-2.77-12.39-6.69-17.18-11.77c-4.78-5.08-8.5-11.21-11.13-18.39c-2.63-7.18-3.95-15.17-3.95-23.99
		c0-8.76,1.32-16.73,3.95-23.91c2.63-7.18,6.34-13.31,11.13-18.39c4.78-5.08,10.51-9.02,17.18-11.81c6.66-2.79,14.03-4.19,22.1-4.19
		c8.06,0,15.44,1.38,22.13,4.15c6.69,2.77,12.43,6.71,17.22,11.81c4.78,5.11,8.49,11.25,11.13,18.43
		C1021.99,1087.46,1023.31,1095.43,1023.31,1104.19z M1014.76,1104.19c0-7.95-1.1-15.1-3.31-21.45c-2.2-6.34-5.32-11.72-9.36-16.13
		c-4.03-4.41-8.87-7.78-14.51-10.12c-5.64-2.34-11.88-3.51-18.71-3.51c-6.78,0-12.98,1.17-18.63,3.51
		c-5.64,2.34-10.5,5.71-14.56,10.12c-4.06,4.41-7.21,9.78-9.44,16.13c-2.23,6.34-3.35,13.5-3.35,21.45c0,8.01,1.12,15.18,3.35,21.49
		c2.23,6.32,5.38,11.68,9.44,16.09c4.06,4.41,8.91,7.77,14.56,10.08c5.64,2.31,11.85,3.46,18.63,3.46c6.83,0,13.06-1.15,18.71-3.46
		c5.64-2.31,10.48-5.67,14.51-10.08c4.04-4.41,7.15-9.77,9.36-16.09C1013.66,1119.37,1014.76,1112.2,1014.76,1104.19z"/>
	<path class="st3" d="M1047.05,1161.28v-114.11h32.82c6.5,0,12.15,0.64,16.93,1.93c4.78,1.29,8.73,3.19,11.86,5.69
		c3.12,2.5,5.43,5.55,6.94,9.15c1.51,3.6,2.26,7.69,2.26,12.26c0,3.01-0.53,5.92-1.58,8.71c-1.05,2.79-2.57,5.38-4.56,7.74
		c-1.99,2.37-4.42,4.42-7.29,6.17c-2.88,1.75-6.15,3.08-9.8,3.99c8.98,1.34,15.87,4.34,20.69,8.99c4.81,4.65,7.21,10.74,7.21,18.26
		c0,4.84-0.86,9.19-2.58,13.06c-1.72,3.87-4.22,7.15-7.5,9.84c-3.28,2.69-7.31,4.75-12.1,6.17c-4.79,1.42-10.21,2.14-16.29,2.14
		H1047.05z M1055.36,1100.56h24.68c5.27,0,9.77-0.67,13.51-2.02c3.74-1.34,6.8-3.12,9.19-5.32c2.39-2.2,4.15-4.71,5.28-7.5
		c1.13-2.79,1.69-5.67,1.69-8.63c0-7.69-2.44-13.51-7.3-17.46c-4.87-3.95-12.38-5.93-22.54-5.93h-24.52V1100.56z M1055.36,1106.61
		v48.06h28.63c10,0,17.57-2.16,22.7-6.49c5.13-4.33,7.7-10.41,7.7-18.27c0-3.6-0.69-6.84-2.06-9.72c-1.37-2.87-3.35-5.32-5.93-7.34
		c-2.58-2.02-5.75-3.56-9.51-4.64c-3.76-1.08-8.04-1.61-12.83-1.61H1055.36z"/>
	<path class="st3" d="M1233.04,1161.28h-6.37c-0.76,0-1.37-0.2-1.85-0.61c-0.49-0.4-0.86-0.93-1.13-1.57l-13.39-33.15h-56.04
		l-13.39,33.15c-0.22,0.59-0.6,1.1-1.13,1.53c-0.54,0.43-1.18,0.64-1.93,0.64h-6.29l46.69-114.11h8.14L1233.04,1161.28z
		 M1156.67,1119.83h51.13l-23.22-57.66c-0.8-1.88-1.58-4.14-2.34-6.78c-0.38,1.29-0.75,2.53-1.13,3.71
		c-0.38,1.18-0.75,2.23-1.13,3.15L1156.67,1119.83z"/>
	<path class="st3" d="M600.32,1314.54c1.18,0,2.23,0.46,3.15,1.37l8.55,9.27c-4.73,5.86-10.55,10.35-17.46,13.47
		c-6.91,3.11-15.2,4.67-24.88,4.67c-8.66,0-16.44-1.47-23.35-4.44c-6.91-2.96-12.81-7.07-17.7-12.34
		c-4.89-5.27-8.64-11.56-11.25-18.87c-2.61-7.31-3.91-15.29-3.91-23.96c0-8.76,1.4-16.78,4.19-24.07
		c2.8-7.28,6.73-13.56,11.82-18.83c5.08-5.27,11.14-9.37,18.19-12.3c7.04-2.93,14.84-4.39,23.38-4.39c8.5,0,16.03,1.4,22.62,4.19
		c6.59,2.79,12.19,6.45,16.82,10.97l-7.26,10.08c-0.43,0.64-0.98,1.21-1.65,1.69c-0.67,0.49-1.6,0.73-2.78,0.73
		c-0.81,0-1.64-0.23-2.5-0.68c-0.86-0.46-1.8-1.02-2.83-1.69c-1.02-0.67-2.2-1.41-3.55-2.22c-1.35-0.81-2.9-1.55-4.68-2.22
		c-1.77-0.67-3.83-1.24-6.17-1.69c-2.34-0.45-5.04-0.69-8.1-0.69c-5.22,0-9.99,0.93-14.31,2.78c-4.33,1.86-8.05,4.55-11.17,8.07
		c-3.12,3.52-5.54,7.82-7.26,12.9c-1.72,5.08-2.58,10.88-2.58,17.38c0,6.56,0.93,12.39,2.78,17.5c1.85,5.11,4.37,9.41,7.54,12.91
		c3.17,3.49,6.91,6.17,11.21,8.02c4.3,1.85,8.92,2.78,13.87,2.78c2.96,0,5.63-0.16,8.02-0.48c2.39-0.32,4.6-0.84,6.61-1.54
		c2.02-0.7,3.92-1.6,5.73-2.7c1.8-1.1,3.59-2.46,5.36-4.07c0.54-0.48,1.1-0.87,1.69-1.17
		C599.06,1314.69,599.67,1314.54,600.32,1314.54z M606.53,1191.97l-26.13,23.06c-1.08,0.97-2.1,1.56-3.07,1.78
		c-0.97,0.22-2.21,0.32-3.71,0.32h-14.43l16.85-21.85c0.54-0.75,1.08-1.36,1.62-1.82c0.54-0.45,1.13-0.79,1.77-1.01
		c0.65-0.21,1.36-0.35,2.14-0.4c0.78-0.05,1.7-0.08,2.78-0.08H606.53z"/>
	<path class="st3" d="M728.19,1342.04h-16.78c-1.88,0-3.41-0.47-4.6-1.41c-1.18-0.94-2.07-2.11-2.66-3.51l-8.71-23.79h-48.31
		l-8.71,23.79c-0.43,1.24-1.26,2.36-2.5,3.39c-1.24,1.02-2.77,1.54-4.6,1.54H614.4l45.88-116.61h22.1L728.19,1342.04z
		 M652.71,1298.02h37.17l-14.19-38.79c-0.7-1.72-1.43-3.75-2.18-6.09c-0.75-2.34-1.51-4.88-2.26-7.62c-0.75,2.74-1.49,5.3-2.21,7.66
		c-0.73,2.37-1.44,4.44-2.14,6.21L652.71,1298.02z"/>
	<path class="st3" d="M807.23,1225.43v17.82h-35.16v98.79h-21.69v-98.79h-35.16v-17.82H807.23z"/>
	<path class="st3" d="M927.53,1283.73c0,8.55-1.41,16.47-4.23,23.75c-2.82,7.28-6.82,13.59-11.97,18.91
		c-5.16,5.32-11.37,9.48-18.63,12.46c-7.26,2.98-15.32,4.47-24.19,4.47c-8.81,0-16.85-1.49-24.11-4.47
		c-7.26-2.98-13.48-7.14-18.67-12.46c-5.19-5.32-9.21-11.62-12.06-18.91c-2.85-7.28-4.27-15.2-4.27-23.75
		c0-8.55,1.42-16.46,4.27-23.74c2.85-7.28,6.87-13.59,12.06-18.91c5.19-5.32,11.41-9.48,18.67-12.46c7.26-2.98,15.3-4.47,24.11-4.47
		c5.92,0,11.48,0.68,16.7,2.06c5.21,1.37,10,3.3,14.35,5.8c4.35,2.5,8.26,5.54,11.73,9.11c3.47,3.58,6.41,7.57,8.83,11.97
		c2.42,4.41,4.26,9.19,5.52,14.36C926.9,1272.61,927.53,1278.04,927.53,1283.73z M905.35,1283.73c0-6.39-0.86-12.13-2.58-17.21
		c-1.72-5.08-4.17-9.4-7.34-12.94c-3.17-3.55-7.03-6.26-11.57-8.14c-4.55-1.88-9.66-2.83-15.36-2.83c-5.7,0-10.82,0.94-15.36,2.83
		c-4.54,1.88-8.41,4.59-11.61,8.14c-3.2,3.55-5.66,7.86-7.38,12.94c-1.72,5.08-2.58,10.82-2.58,17.21c0,6.41,0.86,12.14,2.58,17.22
		c1.72,5.08,4.18,9.38,7.38,12.9c3.2,3.52,7.07,6.23,11.61,8.11c4.54,1.88,9.66,2.82,15.36,2.82c5.7,0,10.82-0.95,15.36-2.82
		c4.54-1.88,8.4-4.58,11.57-8.11c3.17-3.52,5.62-7.82,7.34-12.9C904.49,1295.87,905.35,1290.14,905.35,1283.73z"/>
	<path class="st3" d="M925.96,1225.43h17.42c1.88,0,3.41,0.46,4.6,1.37c1.18,0.91,2.07,2.1,2.66,3.54l27.5,71.13
		c0.91,2.31,1.79,4.85,2.62,7.62c0.83,2.77,1.62,5.66,2.38,8.67c0.59-3.01,1.28-5.9,2.06-8.67c0.78-2.77,1.62-5.31,2.54-7.62
		l27.34-71.13c0.43-1.23,1.28-2.36,2.54-3.39c1.26-1.02,2.81-1.53,4.64-1.53h17.5l-47.09,116.61h-19.6L925.96,1225.43z"/>
	<path class="st3" d="M1072.12,1342.04h-21.77v-116.61h21.77V1342.04z"/>
	<path class="st3" d="M1177.14,1314.54c1.18,0,2.23,0.46,3.15,1.37l8.55,9.27c-4.73,5.86-10.55,10.35-17.46,13.47
		c-6.91,3.11-15.2,4.67-24.88,4.67c-8.66,0-16.44-1.47-23.35-4.44c-6.91-2.96-12.81-7.07-17.7-12.34
		c-4.89-5.27-8.64-11.56-11.25-18.87c-2.61-7.31-3.91-15.29-3.91-23.96c0-8.76,1.4-16.78,4.19-24.07
		c2.8-7.28,6.73-13.56,11.82-18.83c5.08-5.27,11.14-9.37,18.18-12.3c7.04-2.93,14.84-4.39,23.38-4.39c8.5,0,16.03,1.4,22.62,4.19
		c6.58,2.79,12.19,6.45,16.81,10.97l-7.26,10.08c-0.43,0.64-0.98,1.21-1.66,1.69c-0.67,0.49-1.6,0.73-2.78,0.73
		c-0.81,0-1.64-0.23-2.5-0.68c-0.86-0.46-1.8-1.02-2.82-1.69c-1.02-0.67-2.21-1.41-3.55-2.22c-1.34-0.81-2.9-1.55-4.67-2.22
		c-1.77-0.67-3.83-1.24-6.17-1.69c-2.34-0.45-5.04-0.69-8.1-0.69c-5.22,0-9.99,0.93-14.32,2.78c-4.33,1.86-8.05,4.55-11.17,8.07
		c-3.11,3.52-5.54,7.82-7.25,12.9c-1.72,5.08-2.59,10.88-2.59,17.38c0,6.56,0.93,12.39,2.79,17.5c1.85,5.11,4.37,9.41,7.54,12.91
		c3.17,3.49,6.91,6.17,11.21,8.02c4.3,1.85,8.92,2.78,13.87,2.78c2.96,0,5.63-0.16,8.03-0.48c2.39-0.32,4.59-0.84,6.61-1.54
		c2.02-0.7,3.92-1.6,5.73-2.7c1.8-1.1,3.59-2.46,5.36-4.07c0.54-0.48,1.1-0.87,1.69-1.17
		C1175.88,1314.69,1176.5,1314.54,1177.14,1314.54z M1183.35,1191.97l-26.13,23.06c-1.08,0.97-2.1,1.56-3.07,1.78
		c-0.96,0.22-2.2,0.32-3.71,0.32h-14.43l16.85-21.85c0.54-0.75,1.08-1.36,1.61-1.82c0.54-0.45,1.13-0.79,1.77-1.01
		c0.64-0.21,1.36-0.35,2.14-0.4c0.78-0.05,1.7-0.08,2.78-0.08H1183.35z"/>
	<path class="st3" d="M1305.01,1342.04h-16.77c-1.88,0-3.42-0.47-4.6-1.41c-1.18-0.94-2.07-2.11-2.66-3.51l-8.71-23.79h-48.31
		l-8.71,23.79c-0.43,1.24-1.26,2.36-2.5,3.39c-1.24,1.02-2.77,1.54-4.6,1.54h-16.94l45.89-116.61h22.1L1305.01,1342.04z
		 M1229.53,1298.02h37.18l-14.19-38.79c-0.7-1.72-1.43-3.75-2.18-6.09c-0.75-2.34-1.51-4.88-2.26-7.62
		c-0.75,2.74-1.49,5.3-2.21,7.66c-0.73,2.37-1.44,4.44-2.14,6.21L1229.53,1298.02z"/>
	<path class="st3" d="M759.28,1479.77c0.78,1.86,1.54,3.73,2.3,5.61c0.75-1.99,1.53-3.9,2.34-5.76c0.81-1.85,1.66-3.64,2.58-5.36
		l34.44-64.59c0.43-0.81,0.88-1.46,1.37-1.94c0.49-0.48,1.01-0.84,1.58-1.05c0.56-0.21,1.2-0.35,1.89-0.4
		c0.7-0.05,1.53-0.08,2.5-0.08h16.37v116.61h-19.11v-75.32c0-1.4,0.04-2.93,0.12-4.6c0.08-1.66,0.2-3.36,0.36-5.08l-35.24,66.13
		c-1.67,3.17-4.22,4.75-7.66,4.75h-3.07c-3.44,0-5.99-1.58-7.66-4.75l-35.64-66.37c0.16,1.77,0.29,3.51,0.4,5.2
		c0.1,1.69,0.16,3.26,0.16,4.72v75.32h-19.11v-116.61h16.37c0.97,0,1.8,0.03,2.5,0.08c0.7,0.06,1.33,0.19,1.89,0.4
		c0.57,0.21,1.08,0.57,1.54,1.05c0.45,0.48,0.9,1.13,1.33,1.94l34.92,64.75C757.65,1476.13,758.49,1477.92,759.28,1479.77z"/>
	<path class="st3" d="M870.6,1504.9h46.61v17.9h-68.3v-116.61h21.69V1504.9z"/>
	<path class="st3" d="M951.09,1522.8h-21.77v-116.61h21.77V1522.8z"/>
	<path class="st3" d="M989.1,1406.31c0.67,0.08,1.26,0.24,1.77,0.48c0.51,0.24,1.01,0.59,1.49,1.05c0.49,0.45,1.02,1.06,1.61,1.81
		l61.13,78.06c-0.16-1.88-0.3-3.74-0.4-5.56c-0.11-1.83-0.16-3.52-0.16-5.08v-70.89h19.12v116.61h-11.13
		c-1.72,0-3.15-0.28-4.31-0.85c-1.16-0.56-2.27-1.52-3.35-2.86l-60.89-77.66c0.16,1.72,0.28,3.43,0.36,5.12
		c0.08,1.69,0.12,3.24,0.12,4.64v71.61h-19.11v-116.61h11.37C987.64,1406.19,988.43,1406.23,989.1,1406.31z"/>
	<path class="st3" d="M1119.68,1522.8h-21.77v-116.61h21.77V1522.8z"/>
</g>
<g>
	<path d="M1202.48,1504.83v1.97h-8.61v5.95h6.97v1.9h-6.97v6.11h8.62l-0.01,1.97h-11.04v-17.91H1202.48z"/>
	<path d="M1216.07,1507.63c-0.08,0.12-0.16,0.22-0.24,0.28c-0.09,0.06-0.19,0.09-0.32,0.09c-0.14,0-0.31-0.07-0.5-0.21
		c-0.19-0.14-0.43-0.3-0.72-0.47c-0.29-0.17-0.63-0.33-1.04-0.47c-0.4-0.14-0.89-0.21-1.47-0.21c-0.54,0-1.02,0.07-1.43,0.22
		s-0.76,0.34-1.04,0.59c-0.28,0.25-0.49,0.54-0.63,0.88s-0.21,0.7-0.21,1.09c0,0.5,0.12,0.91,0.37,1.24
		c0.25,0.33,0.57,0.61,0.98,0.84c0.4,0.23,0.86,0.44,1.37,0.61c0.51,0.17,1.04,0.35,1.58,0.53s1.06,0.39,1.58,0.62
		c0.51,0.23,0.97,0.52,1.37,0.87c0.4,0.35,0.73,0.78,0.98,1.29c0.25,0.51,0.37,1.13,0.37,1.88c0,0.78-0.13,1.52-0.4,2.21
		s-0.66,1.29-1.17,1.79c-0.51,0.51-1.14,0.91-1.89,1.2c-0.75,0.29-1.59,0.44-2.54,0.44c-1.17,0-2.22-0.21-3.17-0.63
		c-0.95-0.42-1.76-0.99-2.44-1.71l0.7-1.15c0.07-0.09,0.15-0.17,0.24-0.23s0.2-0.09,0.32-0.09c0.11,0,0.23,0.04,0.37,0.13
		c0.14,0.09,0.29,0.2,0.47,0.33c0.17,0.13,0.38,0.28,0.6,0.44s0.48,0.3,0.77,0.44c0.29,0.13,0.61,0.24,0.98,0.33
		c0.37,0.09,0.78,0.13,1.24,0.13c0.58,0,1.09-0.08,1.54-0.24s0.83-0.38,1.14-0.67c0.31-0.29,0.55-0.63,0.72-1.03
		c0.17-0.4,0.25-0.85,0.25-1.34c0-0.54-0.12-0.99-0.37-1.33c-0.25-0.35-0.57-0.63-0.97-0.87c-0.4-0.23-0.86-0.43-1.38-0.59
		c-0.52-0.16-1.04-0.33-1.58-0.5s-1.06-0.37-1.57-0.59c-0.52-0.23-0.98-0.52-1.38-0.88c-0.4-0.36-0.72-0.81-0.97-1.34
		c-0.25-0.54-0.37-1.2-0.37-1.99c0-0.63,0.12-1.25,0.37-1.84c0.25-0.59,0.6-1.12,1.08-1.58c0.47-0.46,1.05-0.83,1.74-1.1
		c0.69-0.28,1.48-0.41,2.37-0.41c1,0,1.91,0.16,2.73,0.48s1.54,0.77,2.17,1.37L1216.07,1507.63z"/>
	<path d="M1233.63,1504.83v2.04h-5.8v15.87h-2.41v-15.87h-5.81v-2.04H1233.63z"/>
	<path d="M1234.32,1521.37c0-0.22,0.04-0.42,0.12-0.61s0.19-0.36,0.33-0.5s0.3-0.25,0.49-0.34c0.19-0.08,0.4-0.12,0.61-0.12
		c0.22,0,0.42,0.04,0.61,0.12c0.19,0.08,0.36,0.2,0.5,0.34c0.14,0.14,0.25,0.31,0.34,0.5s0.12,0.4,0.12,0.61
		c0,0.23-0.04,0.43-0.12,0.62s-0.2,0.35-0.34,0.49c-0.14,0.14-0.31,0.25-0.5,0.33c-0.19,0.08-0.4,0.12-0.61,0.12
		c-0.22,0-0.42-0.04-0.61-0.12c-0.19-0.08-0.36-0.19-0.49-0.33s-0.25-0.31-0.33-0.49S1234.32,1521.59,1234.32,1521.37z"/>
	<path d="M1250.2,1521.04h3.84v-12.21c0-0.35,0.01-0.72,0.04-1.11l-3.19,2.74c-0.11,0.09-0.22,0.15-0.32,0.17
		c-0.11,0.02-0.21,0.02-0.3,0.01c-0.09-0.02-0.18-0.05-0.26-0.1s-0.14-0.1-0.18-0.16l-0.7-0.96l5.34-4.61h1.81v16.25h3.52v1.7h-9.6
		V1521.04z"/>
	<path d="M1269.74,1515.61c0.18-0.24,0.35-0.47,0.51-0.69c0.16-0.22,0.31-0.43,0.45-0.65c-0.46,0.37-0.97,0.65-1.55,0.84
		c-0.57,0.19-1.18,0.29-1.82,0.29c-0.67,0-1.31-0.11-1.92-0.34c-0.6-0.22-1.13-0.56-1.59-0.99c-0.46-0.44-0.82-0.98-1.09-1.61
		c-0.27-0.64-0.41-1.37-0.41-2.19c0-0.78,0.15-1.52,0.44-2.2c0.29-0.68,0.7-1.28,1.22-1.79s1.15-0.91,1.88-1.2
		c0.72-0.29,1.52-0.44,2.39-0.44c0.86,0,1.64,0.14,2.34,0.42c0.7,0.28,1.3,0.68,1.8,1.19c0.5,0.51,0.89,1.12,1.16,1.83
		s0.41,1.49,0.41,2.35c0,0.52-0.05,1.01-0.14,1.47c-0.1,0.46-0.23,0.92-0.41,1.36c-0.18,0.45-0.4,0.89-0.66,1.32
		c-0.26,0.44-0.55,0.89-0.88,1.34l-4.36,6.3c-0.11,0.16-0.26,0.29-0.46,0.38s-0.43,0.14-0.69,0.14h-2.05L1269.74,1515.61z
		 M1271.8,1510.16c0-0.56-0.09-1.06-0.27-1.52c-0.18-0.45-0.43-0.84-0.74-1.16c-0.32-0.32-0.69-0.56-1.13-0.73s-0.92-0.26-1.44-0.26
		c-0.55,0-1.05,0.09-1.5,0.27c-0.45,0.18-0.84,0.43-1.16,0.74c-0.33,0.32-0.58,0.7-0.75,1.14c-0.18,0.44-0.26,0.92-0.26,1.45
		c0,0.57,0.08,1.07,0.24,1.52c0.16,0.45,0.4,0.82,0.7,1.13c0.3,0.31,0.67,0.54,1.11,0.7s0.93,0.24,1.47,0.24
		c0.6,0,1.13-0.1,1.59-0.29c0.46-0.2,0.85-0.46,1.17-0.78c0.32-0.33,0.56-0.7,0.73-1.12
		C1271.72,1511.06,1271.8,1510.62,1271.8,1510.16z"/>
	<path d="M1284.79,1515.61c0.18-0.24,0.35-0.47,0.51-0.69c0.16-0.22,0.31-0.43,0.45-0.65c-0.46,0.37-0.97,0.65-1.55,0.84
		c-0.57,0.19-1.18,0.29-1.82,0.29c-0.67,0-1.31-0.11-1.92-0.34c-0.6-0.22-1.13-0.56-1.59-0.99c-0.46-0.44-0.82-0.98-1.09-1.61
		c-0.27-0.64-0.41-1.37-0.41-2.19c0-0.78,0.15-1.52,0.44-2.2c0.29-0.68,0.7-1.28,1.22-1.79s1.15-0.91,1.88-1.2
		c0.72-0.29,1.52-0.44,2.39-0.44c0.86,0,1.64,0.14,2.34,0.42c0.7,0.28,1.3,0.68,1.8,1.19c0.5,0.51,0.89,1.12,1.16,1.83
		s0.41,1.49,0.41,2.35c0,0.52-0.05,1.01-0.14,1.47c-0.1,0.46-0.23,0.92-0.41,1.36c-0.18,0.45-0.4,0.89-0.66,1.32
		c-0.26,0.44-0.55,0.89-0.88,1.34l-4.36,6.3c-0.11,0.16-0.26,0.29-0.46,0.38s-0.43,0.14-0.69,0.14h-2.05L1284.79,1515.61z
		 M1286.85,1510.16c0-0.56-0.09-1.06-0.27-1.52c-0.18-0.45-0.43-0.84-0.74-1.16c-0.32-0.32-0.69-0.56-1.13-0.73
		s-0.92-0.26-1.44-0.26c-0.55,0-1.05,0.09-1.5,0.27c-0.45,0.18-0.84,0.43-1.16,0.74c-0.33,0.32-0.58,0.7-0.75,1.14
		c-0.18,0.44-0.26,0.92-0.26,1.45c0,0.57,0.08,1.07,0.24,1.52c0.16,0.45,0.4,0.82,0.7,1.13c0.3,0.31,0.67,0.54,1.11,0.7
		s0.93,0.24,1.47,0.24c0.6,0,1.13-0.1,1.59-0.29c0.46-0.2,0.85-0.46,1.17-0.78c0.32-0.33,0.56-0.7,0.73-1.12
		C1286.77,1511.06,1286.85,1510.62,1286.85,1510.16z"/>
	<path d="M1301.63,1516.28h2.71v1.28c0,0.13-0.04,0.25-0.12,0.34s-0.2,0.14-0.37,0.14h-2.22v4.71h-1.95v-4.71h-7.95
		c-0.17,0-0.31-0.05-0.43-0.14c-0.12-0.1-0.2-0.21-0.23-0.36l-0.23-1.14l8.71-11.56h2.07V1516.28z M1299.68,1508.9
		c0-0.22,0.01-0.45,0.02-0.71c0.01-0.25,0.04-0.51,0.08-0.78l-6.52,8.87h6.42V1508.9z"/>
</g>
</svg>
